<?xml version="1.0" encoding="utf-8"?>
<svg xmlns="http://www.w3.org/2000/svg" xmlns:xlink="http://www.w3.org/1999/xlink" version= "1.1" width="5000px" height="5000px" viewBox="-1960 -1797 5000 5000">
<g id="layer1">
<g style="fill:rgb(151,88,35); fill-opacity:1.0; stroke-linejoin: miter">
<path d="M-264.67435,-1548.2428L-264.67435,-1311.1932L-264.67435,-1311.1921L-501.71545,-1311.1942L-501.71545,-1311.1931L-501.71545,-1311.192L-738.75665,-1311.1941L-738.75665,-1074.145L-738.75665,-1074.1439L-975.7977,-1074.146L-975.79785,-837.09674L-975.79785,-837.09564L-1212.8391,-837.0978L-1212.8391,-600.0485L-1212.8391,-600.0474L-1449.8806,-600.0495L-1449.8806,-362.9627L-1449.8806,-125.95208L-1449.8806,-125.95096L-1686.9221,-125.9531L-1686.9221,111.13377L-1686.9221,348.18182L-1686.9221,585.2299L-1686.9221,822.2781L-1686.9222,1059.3262L-1686.9222,1296.3744L-1686.9222,1533.4224L-1449.8807,1533.4211L-1449.8807,1533.4222L-1449.8805,1770.4702L-1449.8805,2007.5182L-1212.8391,2007.5171L-1212.8391,2007.5182L-1212.8391,2244.5662L-975.79785,2244.5652L-975.79785,2244.5662L-975.79785,2481.6143L-738.7567,2481.613L-738.7567,2481.614L-738.7568,2718.662L-501.7155,2718.6614L-501.7155,2718.6626L-501.7155,2718.6636L-264.67432,2718.6614L-264.67432,2718.6626L-264.67432,2718.6636L-264.6743,2718.6626L-264.6743,2718.6636L-264.67432,2955.7112L-27.633192,2955.7097L-27.633192,2955.711L-27.633192,2955.7107L209.40791,2955.7095L209.40791,2955.7107L209.40791,2955.7117L446.44885,2955.7092L446.44885,2955.7104L446.44885,2955.7114L683.4904,2955.7092L683.4904,2955.7104L683.4904,2955.7102L920.53125,2955.709L920.53125,2955.7102L920.53125,2955.7104L1157.5721,2955.709L1157.5721,2955.7102L1157.5721,2955.7112L1394.6583,2955.709L1394.6583,2718.6619L1394.6583,2718.6628L1631.6531,2718.6604L1631.6531,2718.6616L1631.6531,2718.6626L1868.7397,2718.6604L1868.7397,2481.6133L1868.7397,2481.6145L2105.7805,2481.612L2105.7805,2244.5652L2105.7805,2244.5662L2342.8215,2244.5642L2342.8218,2007.5173L2342.8218,2007.5184L2579.8618,2007.5161L2579.8618,1770.468L2579.8618,1533.4199L2579.8618,1296.3729L2579.8618,1296.374L2816.9026,1296.3717L2816.9026,1059.3234L2816.9026,822.27527L2816.9026,585.2271L2816.9026,348.17892L2816.9026,111.13083L2816.9026,-125.95345L2579.8618,-125.95447L2579.8618,-125.95335L2579.8618,-362.96533L2579.8618,-600.04987L2342.8215,-600.05084L2342.8215,-600.04974L2342.8215,-837.0979L2105.781,-837.0989L2105.781,-837.0978L2105.781,-1074.1459L1868.7401,-1074.1469L1868.7401,-1074.1458L1868.7401,-1311.194L1631.6536,-1311.195L1631.6536,-1311.194L1631.6536,-1311.1929L1394.658,-1311.1951L1394.658,-1311.194L1394.658,-1548.2424L1157.5715,-1548.2434L1157.5715,-1548.2423L1157.5715,-1548.2412L920.53076,-1548.2433L920.53076,-1548.2422L920.53076,-1548.2411L683.49005,-1548.2429L683.49005,-1548.242L683.49005,-1548.2408L446.4487,-1548.2429L446.4487,-1548.2418L446.4487,-1548.2407L209.40773,-1548.2428L209.40773,-1548.2418L209.40773,-1548.2407L-27.633307,-1548.2429L-27.633307,-1548.2418L-27.633307,-1548.2407L-264.67435,-1548.2428 Z"/>
</g>
<g style="fill:rgb(129,69,16); fill-opacity:1.0; stroke-linejoin: miter">
<path d="M2105.7346,1533.4202L2105.7346,1533.421L2105.7349,1533.421L2105.7349,1770.4316L1868.7397,1770.4307L1868.7397,1533.4211L2105.7346,1533.4202 Z M1157.5715,-1311.1576L1157.5715,-1311.1569L1157.5721,-1311.1569L1157.5721,-1311.1569L1157.5721,-1074.1085L1394.6129,-1074.1095L1394.6129,-1074.1085L1631.6536,-1074.1095L1631.6536,-1074.1086L1868.6941,-1074.1096L1868.6941,-837.0605L2105.7349,-837.06146L2105.7349,-600.01245L2342.7754,-600.0134L2342.7754,-600.0134L2342.7754,-362.96432L2342.7756,-362.96432L2342.7756,-125.95441L2342.7754,-125.95441L2342.7754,111.131966L2342.7756,111.131966L2342.7756,348.18018L2342.7756,585.1911L2105.7349,585.1901L2105.7349,822.2766L2342.7756,822.27563L2342.7756,822.2765L2342.7756,1059.2874L2105.7346,1059.2864L2105.7346,1296.3357L1868.6938,1296.3347L1868.6938,1533.3839L1631.6533,1533.3829L1631.6533,1770.4308L1631.6531,1770.4308L1631.6531,1770.4316L1394.6125,1770.4307L1394.6125,2007.5172L1394.6125,2244.5278L1157.6174,2244.5269L1157.6174,2007.48L920.5309,2007.479L920.5309,2244.5654L920.5309,2481.5764L683.5355,2481.5754L683.5355,2244.528L446.44882,2244.527L446.44882,2244.5283L209.40782,2244.5273L209.40782,2481.5764L-27.588095,2481.5754L-27.588095,2244.5283L-264.67432,2244.5273L-264.67432,2244.5283L-501.67047,2244.5273L-501.67047,2007.4803L-738.7567,2007.4794L-738.7567,2007.4803L-975.7532,2007.4794L-975.7532,1770.4691L-975.7532,1533.3845L-1212.7944,1533.3835L-1212.7944,1296.3365L-1449.836,1296.3356L-1449.836,1059.325L-1449.836,822.27686L-1449.8359,822.27686L-1449.8359,585.2287L-1449.8359,348.1806L-1449.8359,111.132545L-1449.8359,-125.91478L-1212.7943,-125.91578L-1212.7943,-362.96396L-1212.7943,-600.011L-975.7532,-600.01196L-975.7532,-837.05927L-738.71173,-837.06024L-738.71173,-1074.1075L-501.71545,-1074.1085L-501.71545,-1074.1077L-264.62906,-1074.1086L-264.62906,-1311.1562L-27.633307,-1311.1572L-27.633307,-1311.1562L209.40773,-1311.1572L209.40773,-1311.1564L446.4487,-1311.1573L446.4487,-1311.1564L683.49005,-1311.1573L683.49005,-1311.1566L920.53076,-1311.1576L920.53076,-1311.1566L1157.5715,-1311.1576 Z M1157.5715,-1548.2434L1157.5715,-1548.2423L920.53076,-1548.2433L920.53076,-1548.242L683.49005,-1548.2429L683.49005,-1548.242L446.4487,-1548.2429L446.4487,-1548.2418L209.40773,-1548.2428L209.40773,-1548.242L-27.633307,-1548.2429L-27.633307,-1548.2418L-264.67435,-1548.2428L-264.67435,-1311.1932L-501.71545,-1311.1942L-501.71545,-1311.1931L-738.75665,-1311.1941L-738.75665,-1074.145L-975.7977,-1074.146L-975.7977,-837.0968L-1212.8391,-837.0978L-1212.8391,-600.0485L-1449.8806,-600.0495L-1449.8806,-362.96295L-1449.8806,-125.9521L-1686.9221,-125.9531L-1686.9221,111.133545L-1686.9221,348.1816L-1686.9221,585.2297L-1686.9221,822.27783L-1686.9221,1059.2875L-1686.9222,1059.2875L-1686.9222,1296.3741L-1449.8807,1296.3732L-1449.8807,1533.4221L-1212.8392,1533.4211L-1212.8392,1770.4701L-1212.8391,1770.4701L-1212.8391,2007.5181L-975.79785,2007.5171L-975.79785,2244.566L-738.7567,2244.565L-738.7567,2481.6143L-501.7155,2481.6133L-501.7155,2481.6143L-264.67432,2481.6133L-264.67432,2481.614L-264.67432,2718.662L-27.633238,2718.6611L-27.633238,2718.662L209.40787,2718.6611L209.40787,2718.6619L446.4488,2718.661L446.4488,2718.6619L683.49023,2718.661L683.49023,2718.6619L920.5309,2718.661L920.5309,2718.6616L1157.6174,2718.6606L1157.6174,2481.6135L1394.6125,2481.6125L1394.6125,2481.6133L1631.699,2481.6123L1631.699,2244.5652L1868.7397,2244.5642L1868.7397,2007.5171L2105.7805,2007.5161L2105.7805,1770.4691L2342.8218,1770.4681L2342.8218,1533.42L2342.8218,1296.3728L2579.8618,1296.3718L2579.8618,1059.3236L2579.8618,822.2755L2579.8618,585.2273L2579.8618,348.17917L2579.8618,111.13097L2579.8618,-125.91715L2579.8618,-362.96533L2579.8618,-600.04987L2342.8215,-600.05084L2342.8215,-600.05084L2342.8215,-837.0979L2105.781,-837.0989L2105.781,-1074.1459L1868.7401,-1074.1469L1868.7401,-1311.194L1631.6536,-1311.195L1631.6536,-1311.1941L1394.658,-1311.1951L1394.658,-1311.1951L1394.658,-1548.2424L1157.5715,-1548.2434 Z"/>
</g>
<g style="fill:rgb(177,116,62); fill-opacity:1.0; stroke-linejoin: miter">
<path d="M920.5311,-837.0611L920.5311,-600.04913L683.5357,-600.0501L683.5357,-600.0501L683.5357,-837.0601L920.5311,-837.0611 Z M446.44897,-362.9645L446.44897,-125.95271L209.4532,-125.95371L209.4532,-362.9635L446.44897,-362.9645 Z M-27.6331,-600.0124L-27.6331,-363.00183L-27.633116,-363.00183L-27.633116,-125.952576L-264.6742,-125.953575L-264.6742,-125.95247L-501.67047,-125.95347L-501.67047,-362.9641L-501.67047,-600.0113L-264.67416,-600.01227L-264.67416,-600.0114L-27.6331,-600.0124 Z M-264.67422,111.1321L-264.67422,348.14267L-264.67426,348.14267L-264.67426,348.14377L-501.67047,348.14276L-501.67047,111.1331L-264.67422,111.1321 Z M683.4904,-1074.1464L683.4904,-1074.1453L446.449,-1074.1462L446.449,-1074.1451L209.408,-1074.1461L209.408,-1074.1453L-27.633078,-1074.1462L-27.633078,-1074.1451L-264.67416,-1074.1461L-264.67416,-837.0969L-501.71545,-837.0979L-501.71545,-600.0487L-738.75665,-600.0497L-738.75665,-363.00153L-738.7567,-363.00153L-738.7567,-125.95234L-975.79785,-125.95334L-975.79785,111.13331L-975.79785,348.14395L-1212.8391,348.14294L-1212.8391,585.2297L-975.79785,585.2287L-975.79785,585.22955L-738.7567,585.2286L-738.7567,585.22943L-501.71558,585.22845L-501.71558,822.27747L-264.67426,822.2765L-264.67426,822.27734L-27.588003,822.27637L-27.588003,585.2291L209.45317,585.22815L209.45317,348.1809L446.44894,348.1799L446.44894,348.18082L683.53564,348.1798L683.53564,111.13261L920.5767,111.13161L920.5767,-125.91554L920.5767,-125.91554L1157.6177,-125.91654L1157.6177,-362.96472L1157.6177,-600.01294L1157.6177,-837.09753L920.5767,-837.0985L920.5767,-837.0985L920.5767,-1074.1454L683.4904,-1074.1464 Z"/>
</g>
<g style="fill:rgb(129,69,16); fill-opacity:1.0; stroke-linejoin: miter">
<path d="M209.40797,-363.00183L209.40797,-125.91536L446.49426,-125.91636L446.49426,-363.00082L209.40797,-363.00183 Z M-975.79785,-363.0016L-975.79785,-125.91485L-738.7118,-125.91585L-738.7118,-363.00058L-975.79785,-363.0016 Z M-501.7155,111.09462L-501.7155,348.1812L-264.62915,348.1802L-264.62915,111.09562L-501.7155,111.09462 Z"/>
</g>
<g style="fill:rgb(188,132,82); fill-opacity:1.0; stroke-linejoin: miter">
<path d="M1631.6534,111.09399L1631.6534,348.18033L1868.74,348.17932L1868.74,111.094986L1631.6534,111.09399 Z M1157.572,822.2385L1157.572,1059.325L1394.6582,1059.324L1394.6582,822.2395L1157.572,822.2385 Z M-501.71558,1059.2871L-501.71558,1296.3739L-264.6292,1296.3729L-264.6292,1059.2881L-501.71558,1059.2871 Z M209.40785,1533.3832L209.40785,1770.4696L446.49417,1770.4686L446.49417,1533.3842L209.40785,1533.3832 Z"/>
</g>
<g style="fill:rgb(168,106,49); fill-opacity:1.0; stroke-linejoin: miter">
<path d="M920.5311,-1311.1948L920.5311,-1311.1936L683.4904,-1311.1946L683.4904,-1311.1935L446.44904,-1311.1945L446.44904,-1311.1934L209.40804,-1311.1943L209.40804,-1311.1935L-27.633062,-1311.1945L-27.633062,-1311.1934L-264.67413,-1311.1943L-264.67413,-1074.145L-501.71545,-1074.146L-501.71545,-1074.1449L-738.75665,-1074.1459L-738.75665,-837.09686L-975.79785,-837.09784L-975.79785,-600.04865L-1212.8391,-600.0496L-1212.8391,-362.9629L-1212.8391,-125.9522L-1449.8806,-125.9532L-1449.8806,111.133446L-1449.8806,348.1815L-1449.8806,585.22955L-1212.7943,585.2286L-1212.7943,348.18152L-975.7532,348.1805L-975.7532,111.13245L-975.7532,-125.91575L-975.7532,-362.96298L-738.7118,-362.964L-738.7118,-600.0112L-501.6704,-600.0122L-501.6704,-837.05945L-264.62906,-837.0604L-264.62906,-1074.1078L-27.633062,-1074.1088L-27.633062,-1074.1078L209.40804,-1074.1088L209.40804,-1074.1079L446.44904,-1074.1089L446.44904,-1074.108L683.4904,-1074.109L683.4904,-1074.1083L920.5311,-1074.1093L920.5311,-837.0601L1157.572,-837.0611L1157.572,-600.01215L1157.572,-362.96393L1157.572,-125.952965L920.5311,-125.953964L920.5311,111.094154L920.53107,111.094154L920.53107,111.095245L683.49036,111.094246L683.49036,348.14352L446.4489,348.14252L446.4489,585.1917L209.40791,585.19073L209.40791,585.19165L-27.633177,585.1907L-27.633177,822.23883L-27.633184,822.23883L-27.633184,822.2399L-27.633184,822.2399L-264.6743,822.23895L-264.6743,822.24L-501.67053,822.239L-501.67053,585.19196L-738.7568,585.191L-738.7568,822.2775L-738.7568,1059.3257L-501.71558,1059.3247L-501.71558,1059.3256L-264.6743,1059.3246L-264.6743,1059.3254L-27.633192,1059.3245L-27.633192,1059.3245L-27.633192,1296.3738L209.45312,1296.3728L209.45312,1059.3253L446.44888,1059.3243L446.44888,1059.3252L446.44888,1296.3735L683.5356,1296.3726L683.5356,1059.3252L920.5766,1059.3242L920.5766,822.27606L920.5766,585.2279L920.5766,348.1808L1157.6177,348.17978L1157.6177,111.13245L1394.6583,111.13145L1394.6583,-125.91678L1394.6583,-362.96405L1631.6993,-362.96506L1631.6993,-600.01324L1631.6993,-837.0614L1631.6993,-1074.1459L1394.6129,-1074.1469L1394.6129,-1074.1458L1157.6178,-1074.1467L1157.6178,-1311.1938L920.5311,-1311.1948 Z"/>
</g>
<g style="fill:rgb(110,50,0); fill-opacity:1.0; stroke-linejoin: miter">
<path d="M683.4904,-837.09827L683.4904,-600.01196L920.5767,-600.01294L920.5767,-837.0973L683.4904,-837.09827 Z M-264.6742,-600.04987L-264.6742,-600.0488L-501.71545,-600.0498L-501.71545,-363.00165L-501.7155,-363.00165L-501.7155,-125.915054L-264.6742,-125.91605L-264.6742,-125.91515L-27.58795,-125.91615L-27.58795,-362.9643L-27.587934,-362.9643L-27.587934,-600.0489L-264.6742,-600.04987 Z M1394.6128,-363.00235L1394.6128,-125.915886L1394.6128,111.13234L1631.6534,111.13134L1631.6534,111.13224L1868.74,111.13124L1868.74,-125.916985L1868.74,-363.0013L1631.6534,-363.00232L1631.6534,-363.00134L1394.6128,-363.00235 Z M209.40793,348.1426L209.40793,585.22906L446.49423,585.2281L446.49423,348.14362L209.40793,348.1426 Z M-975.79785,585.191L-975.79785,585.192L-1212.8391,585.19104L-1212.8391,822.2778L-1212.8391,1059.3259L-975.79785,1059.325L-975.79785,1059.3258L-738.71185,1059.3248L-738.71185,822.2767L-738.71185,585.19196L-975.79785,585.191 Z M1157.5719,1059.2866L1157.5719,1059.2877L920.531,1059.2867L920.531,1296.3734L920.531,1533.4215L1157.5719,1533.4205L1157.5719,1533.4213L1394.6582,1533.4203L1394.6582,1296.3723L1394.6582,1059.2876L1157.5719,1059.2866 Z M-27.633215,1533.383L-27.633215,1533.3842L-264.6743,1533.3832L-264.6743,1770.4697L-264.6743,2007.5178L-27.633207,2007.5168L-27.633207,2007.5178L209.45308,2007.5168L209.45308,1770.4688L209.4531,1770.4688L209.4531,1533.384L-27.633215,1533.383 Z M683.49023,2244.527L683.49023,2481.6138L920.5765,2481.6128L920.5765,2244.528L683.49023,2244.527 Z"/>
</g>
<g style="fill:rgb(165,111,64); fill-opacity:1.0; stroke-linejoin: miter">
<path d="M2105.7349,822.2383L2105.7349,1059.3247L2342.8218,1059.3237L2342.8218,822.23926L2105.7349,822.2383 Z M1868.6938,1533.3828L1868.6938,1770.469L2105.7805,1770.468L2105.7805,1533.3838L1868.6938,1533.3828 Z M-975.798,1533.3834L-975.798,1770.47L-738.7118,1770.469L-738.7118,1533.3844L-975.798,1533.3834 Z M1157.5718,2007.4789L1157.5718,2244.5654L1394.6581,2244.5645L1394.6581,2007.4799L1157.5718,2007.4789 Z M-27.63326,2244.527L-27.63326,2481.614L209.45305,2481.613L209.45305,2244.528L-27.63326,2244.527 Z"/>
</g>
<g style="fill:rgb(110,50,0); fill-opacity:1.0; stroke-linejoin: miter">
<path d="M-1686.9222,1296.3357L-1686.9222,1533.4221L-1449.8807,1533.4211L-1449.8807,1533.4211L-1449.8807,1533.3835L-1449.836,1533.3835L-1449.836,1533.3835L-1449.836,1296.3367L-1686.9222,1296.3357 Z M2579.8157,-125.95447L2579.8157,111.13183L2579.8157,348.17993L2579.8157,585.2281L2579.8157,822.27625L2579.8157,1059.3243L2579.8157,1296.3354L2342.7756,1296.3345L2342.7756,1533.4209L2342.7756,1770.4315L2105.7346,1770.4305L2105.7346,2007.4797L1868.6937,2007.4788L1868.6937,2244.5278L1631.6531,2244.5269L1631.6531,2481.5762L1394.6125,2481.5752L1394.6125,2481.5762L1157.5718,2481.5752L1157.5718,2718.6245L920.53125,2718.6235L920.53125,2718.625L683.4904,2718.624L683.4904,2718.6245L446.44888,2718.6235L446.44888,2718.6248L209.40793,2718.6238L209.40793,2718.6248L-27.633177,2718.6238L-27.633177,2718.625L-264.6292,2718.624L-264.6292,2481.5767L-501.71545,2481.5757L-501.71545,2481.5764L-738.7118,2481.5754L-738.7118,2244.5283L-975.7532,2244.5273L-975.7532,2007.4805L-1212.7943,2007.4795L-1212.7943,1770.4691L-1212.7943,1533.3845L-1449.836,1533.3835L-1449.836,1533.3835L-1449.836,1533.4211L-1449.8807,1533.4211L-1449.8807,1533.4211L-1449.8807,1770.4701L-1449.8805,1770.4701L-1449.8805,2007.5181L-1212.8391,2007.5171L-1212.8391,2244.5662L-975.79785,2244.5652L-975.79785,2481.614L-738.7567,2481.613L-738.7567,2718.6624L-501.71545,2718.6614L-501.71545,2718.6624L-264.6743,2718.6614L-264.6743,2955.7107L-27.633177,2955.7097L-27.633177,2955.7104L209.40793,2955.7095L209.40793,2955.7102L446.44888,2955.7092L446.44888,2955.7102L683.4904,2955.7092L683.4904,2955.71L920.53125,2955.709L920.53125,2955.71L1157.5721,2955.709L1157.5721,2955.71L1394.6583,2955.709L1394.6583,2718.6614L1631.6531,2718.6604L1631.6531,2718.6614L1868.7397,2718.6604L1868.7397,2481.613L2105.7805,2481.612L2105.7805,2244.5652L2342.8215,2244.5642L2342.8215,2007.5171L2579.8618,2007.5161L2579.8618,1770.468L2579.8618,1533.4199L2579.8618,1296.3727L2816.9026,1296.3717L2816.9026,1059.3234L2816.9026,822.27527L2816.9026,585.2271L2816.9026,348.17892L2816.9026,111.13083L2816.9026,-125.95347L2579.8157,-125.95447 Z"/>
</g>
<g style="fill:rgb(151,88,35); fill-opacity:1.0; stroke-linejoin: miter">
<path d="M1394.6128,822.2759L1394.6128,1059.2865L1394.6128,1059.2865L1394.6127,1059.2865L1394.6127,1296.3733L1394.6127,1533.3838L1394.6127,1533.3838L1157.5719,1533.3828L1157.5719,1533.3839L1157.5719,1533.3839L920.57654,1533.3829L920.57654,1533.3829L920.57654,1296.3726L920.57654,1296.3726L920.5766,1296.3726L920.5766,1059.3252L920.5766,1059.3252L1157.6176,1059.3242L1157.6176,822.27686L1157.6176,822.27686L1394.6128,822.2759 Z M446.44885,1533.4207L446.44885,1770.4323L446.44885,1770.4323L209.40785,1770.4313L209.40785,2007.4794L209.40785,2007.4794L209.40782,2007.4794L209.40782,2007.4802L209.40782,2007.4802L-27.633245,2007.4792L-27.633245,2007.4803L-27.633245,2007.4803L-264.6292,2007.4794L-264.6292,2007.4794L-264.6292,1770.4689L-264.6292,1770.4689L-264.62918,1770.4689L-264.62918,1533.4218L-264.62918,1533.4218L-27.633215,1533.4208L-27.633215,1533.4208L-27.633215,1533.4218L209.40788,1533.4208L209.40788,1533.4208L209.40788,1533.4216L446.44885,1533.4207 Z M1631.6536,-1074.1467L1631.6536,-837.0987L1631.6536,-837.0987L1631.6534,-837.0987L1631.6534,-600.0124L1631.6534,-362.96414L1868.694,-362.96515L1868.694,-362.96515L1868.694,-125.915955L1868.694,111.132164L1868.694,348.14316L1868.694,348.14316L1631.6993,348.14215L1631.6993,348.14215L1631.6993,111.094955L1394.6128,111.093956L1394.6128,111.095055L1394.6128,111.095055L1157.572,111.094055L1157.572,348.14334L1157.572,348.14334L920.53107,348.14233L920.53107,585.1905L920.53107,585.1905L920.531,585.1905L920.531,822.2771L920.531,1059.2877L920.531,1059.2877L683.4903,1059.2867L683.4903,1296.336L683.4903,1296.336L446.49417,1296.3351L446.49417,1296.3351L446.49417,1059.288L209.40788,1059.287L209.40788,1296.336L209.40788,1296.336L-27.588026,1296.3351L-27.588026,1296.3351L-27.588026,1059.288L-264.6743,1059.287L-264.6743,1296.3352L-264.6743,1296.3352L-264.67432,1296.3352L-264.67432,1296.3363L-264.67432,1296.3363L-501.67053,1296.3353L-501.67053,1296.3353L-501.67053,1059.2882L-738.7568,1059.2872L-738.7568,1059.2882L-738.7568,1059.2882L-975.798,1059.2872L-975.798,1059.2883L-975.798,1059.2883L-1212.7944,1059.2874L-1212.7944,1059.2874L-1212.7944,822.27673L-1212.7944,822.27673L-1212.7943,822.27673L-1212.7943,585.19214L-1449.8806,585.19116L-1449.8806,822.2777L-1449.8806,1059.2874L-1449.8806,1059.2874L-1449.8807,1059.2874L-1449.8807,1296.3741L-1212.8392,1296.3732L-1212.8392,1296.3732L-1212.8392,1533.4222L-975.798,1533.4213L-975.798,1533.4213L-975.798,1533.4221L-738.75684,1533.4211L-738.75684,1533.4211L-738.75684,1770.4323L-738.75684,1770.4323L-975.79785,1770.4313L-975.79785,2007.518L-738.7567,2007.517L-738.7567,2007.517L-738.7567,2007.5181L-501.7155,2007.5171L-501.7155,2007.5171L-501.7155,2244.5662L-264.67432,2244.5652L-264.67432,2244.5652L-264.67432,2244.566L-27.633245,2244.565L-27.633245,2244.565L-27.633245,2244.566L209.40782,2244.565L209.40782,2244.565L209.40782,2244.5657L446.44882,2244.5647L446.44882,2244.5647L446.44882,2244.5657L683.49023,2244.5647L683.49023,2244.5647L683.49023,2244.5657L920.5765,2244.5647L920.5765,2007.5175L920.5765,2007.5175L1157.5718,2007.5165L1157.5718,2007.5165L1157.5718,2007.5172L1394.6581,2007.5162L1394.6581,1770.4691L1394.6581,1770.4691L1631.699,1770.4681L1631.699,1533.4211L1631.699,1533.4211L1868.7399,1533.4202L1868.7399,1296.373L1868.7399,1296.373L2105.7808,1296.3721L2105.7808,1059.3239L2105.7808,822.27576L2105.7808,822.27576L2105.781,822.27576L2105.781,585.2284L2105.781,585.2284L2342.8218,585.2274L2342.8218,348.17926L2342.8218,111.09478L2342.8213,111.09478L2342.8213,111.09478L2342.8213,-125.91705L2342.8213,-125.91705L2342.8218,-125.91705L2342.8218,-363.0015L2342.8215,-363.0015L2342.8215,-363.0015L2342.8215,-600.04974L2105.781,-600.0507L2105.781,-600.0507L2105.781,-837.09784L1868.74,-837.0988L1868.74,-837.0988L1868.74,-1074.1458L1631.6536,-1074.1467 Z"/>
</g>
</g>
</svg>